<svg xmlns="http://www.w3.org/2000/svg" width="960" height="540" viewBox="0 0 960 540" fill="none">
  <defs>
    <linearGradient id="bg" x1="0" y1="0" x2="0" y2="540" gradientUnits="userSpaceOnUse">
      <stop stop-color="#DDF3FF"/>
      <stop offset="0.62" stop-color="#FCE9BE"/>
      <stop offset="0.63" stop-color="#9AD07A"/>
      <stop offset="1" stop-color="#6FA85A"/>
    </linearGradient>
    <radialGradient id="soil" cx="0" cy="0" r="1" gradientUnits="userSpaceOnUse" gradientTransform="translate(480 366) rotate(90) scale(90 170)">
      <stop stop-color="#8A5B39"/>
      <stop offset="1" stop-color="#5A3520"/>
    </radialGradient>
    <linearGradient id="mole" x1="0" y1="0" x2="0" y2="140" gradientUnits="userSpaceOnUse">
      <stop stop-color="#8A7160"/>
      <stop offset="1" stop-color="#5C473B"/>
    </linearGradient>
  </defs>

  <rect width="960" height="540" fill="url(#bg)"/>

  <g opacity="0.2" fill="#ffffff">
    <circle cx="138" cy="90" r="54"/>
    <circle cx="826" cy="120" r="72"/>
  </g>

  <rect x="110" y="210" width="740" height="250" rx="48" fill="#4F9D56"/>
  <ellipse cx="480" cy="366" rx="170" ry="90" fill="url(#soil)"/>

  <g>
    <ellipse cx="480" cy="300" rx="78" ry="88" fill="url(#mole)"/>
    <ellipse cx="432" cy="238" rx="22" ry="20" fill="#6B5648"/>
    <ellipse cx="528" cy="238" rx="22" ry="20" fill="#6B5648"/>
    <ellipse cx="480" cy="330" rx="38" ry="24" fill="#DBC4AA"/>
    <circle cx="456" cy="292" r="7" fill="#1F1712"/>
    <circle cx="504" cy="292" r="7" fill="#1F1712"/>
    <ellipse cx="480" cy="322" rx="8" ry="6" fill="#633D39"/>
  </g>

  <g transform="translate(640 90) rotate(-18)">
    <rect x="0" y="0" width="126" height="46" rx="12" fill="#B8C2C8"/>
    <rect x="106" y="8" width="30" height="30" rx="8" fill="#A5B0B6"/>
    <rect x="44" y="34" width="16" height="140" rx="8" fill="#8F5226"/>
  </g>

  <rect x="42" y="38" width="290" height="64" rx="18" fill="rgba(255,255,255,0.72)"/>
  <text x="66" y="79" fill="#6A411E" font-size="40" font-family="Noto Sans TC, Microsoft JhengHei, sans-serif" font-weight="800">打地鼠</text>
</svg>
